<?xml version="1.0" encoding="UTF-8"?>
<svg width="1162px" height="365px" viewBox="0 0 1162 365" version="1.1" xmlns="http://www.w3.org/2000/svg" xmlns:xlink="http://www.w3.org/1999/xlink">
    <title>white</title>
    <g id="页面-1" stroke="none" stroke-width="1" fill="none" fill-rule="evenodd">
        <g id="画板备份-2" transform="translate(-270, -270)">
            <g id="white" transform="translate(270, 270)">
                <path d="M453,237 L453,269 L468,269 L468,299 L492,299 L492,338 L477,338 L477,357 L438,357 L438,364 L399,364 L399,347 L362,347 L362,308 L380,308 L380,288 L394,288 L394,260 L414,260 L414,237 L453,237 Z M285,0 L285,39 L273,39 L273,79 L269,79 L269,91 L327,91 L327,133 L374,133 L374,171 L414,171 L414,237 L348,237 L348,199 L312,199 L312,219 L269,219 L269,240 L228,240 L228,259 L164,259 L164,280 L103,280 L103,290 L37,290 L37,276 L0,276 L0,210 L24,210 L24,161 L60,161 L60,128 L103,128 L103,108 L146,108 L146,87 L182,87 L182,46 L209,46 L209,23 L246,23 L246,0 L285,0 Z" id="形状结合" fill="#FFFFFF"></path>
                <path d="M209,167 L209,200 L258,200 L258,266 L192,266 L192,233 L143,233 L143,167 L209,167 Z M69,114.5 L113,114.5 L113,158.5 L69,158.5 Z M433,320.5 L477,320.5 L477,364.5 L433,364.5 Z M312,71 L312,104 L341,104 L341,148 L297,148 L297,137 L246,137 L246,71 L312,71 Z M28,233 L51,233 L51,256 L28,256 Z" id="形状结合" fill="#FF0083"></path>
                <path d="M655.296296,257.72 L699.444444,257.72 L699.444444,301.88 L765.666667,301.88 L765.666667,213.56 L721.518519,213.56 L721.518519,191.48 L677.37037,191.48 L677.37037,169.4 L721.518519,169.4 L721.518519,125.24 L765.666667,125.24 L765.666667,59 L699.444444,59 L699.444444,103.16 L655.296296,103.16 L655.296296,147.32 L633.222222,147.32 L633.222222,59 L567,59 L567,301.88 L633.222222,301.88 L633.222222,213.56 L655.296296,213.56 L655.296296,257.72 Z M1029.88889,301 L1029.88889,59 L831.888889,59 L831.888889,301 L1029.88889,301 Z M897,235 L897,125 L963,125 L963,235 L897,235 Z M1096,59 L1096,301.064966 L1162,301.064966 L1162,59 L1096,59 Z" id="形状结合" fill="#FFFFFF" fill-rule="nonzero"></path>
                <path d="M652,98 L725,98 L725,171 L652,171 Z M963,234 L1030,234 L1030,301 L963,301 Z M1096,91 L1162,91 L1162,157 L1096,157 Z" id="形状结合" fill="#FF0083"></path>
            </g>
        </g>
    </g>
</svg>