<svg width="257" height="256" viewBox="0 0 257 256" fill="none" xmlns="http://www.w3.org/2000/svg">
<rect width="256" height="256" transform="translate(0.363525)" fill="black"/>
<path fill-rule="evenodd" clip-rule="evenodd" d="M186.843 52.8C189.969 52.8 192.926 53.18 195.677 53.9039L195.676 81.4507C193.969 82.0178 192.507 83.1257 191.495 84.5713C190.553 85.9171 190 87.5558 190 89.3236C190 91.6137 190.928 93.6868 192.428 95.1875C193.928 96.6887 196.001 97.6171 198.29 97.6171C200.579 97.6171 202.652 96.6887 204.152 95.1875C205.652 93.6868 206.58 91.6137 206.58 89.3236C206.58 87.5558 206.027 85.9171 205.085 84.5713C204.073 83.1257 202.611 82.0178 200.904 81.4507L200.905 55.8054C210.759 60.4852 216.897 70.3032 216.897 82.9334C216.897 99.3697 203.149 113.067 186.843 113.067C169.099 113.067 156.63 100.82 156.63 82.9334C156.63 71.4154 163.251 61.3718 172.806 56.3031L172.806 81.4506C171.099 82.0177 169.637 83.1256 168.625 84.5712C167.683 85.917 167.13 87.5558 167.13 89.3236C167.13 91.6137 168.058 93.6868 169.557 95.1875C171.058 96.6887 173.131 97.6171 175.42 97.6171C177.709 97.6171 179.782 96.6887 181.282 95.1875C182.782 93.6868 183.71 91.6137 183.71 89.3236C183.71 87.5559 183.157 85.9173 182.215 84.5716C181.203 83.1261 179.742 82.0182 178.034 81.4509L178.033 54.1299C180.83 53.2656 183.79 52.8 186.843 52.8ZM131.012 52.8L137.802 68.772C133.909 71.7991 130.693 75.4123 128.324 79.5346L128.214 79.7263L127.997 79.696C127.572 79.6391 127.138 79.6097 126.697 79.6097C124.013 79.6097 121.583 80.6982 119.824 82.4581C118.065 84.2176 116.977 86.6483 116.977 89.3334C116.977 92.201 118.218 94.7786 120.193 96.5587C120.259 96.6187 120.326 96.6777 120.394 96.7359C120.348 96.8152 120.301 96.8941 120.254 96.9727L120.065 97.2833C116.942 102.339 112.264 106.51 106.441 109.563L101.213 111.888C100.054 112.32 98.8613 112.714 97.6378 113.068L96.8969 113.067L122.515 52.8H131.012ZM66.257 52.8C83.7473 52.8 96.8969 65.1854 96.8969 82.9334C96.8969 94.6194 90.1261 104.66 80.3714 109.669L80.3702 88.1665C82.0779 87.5993 83.5392 86.4915 84.5514 85.0459C85.4938 83.7001 86.0467 82.0613 86.0467 80.2935C86.0467 78.0035 85.1189 75.9303 83.619 74.4296C82.1187 72.9284 80.046 72 77.7567 72C75.4673 72 73.3946 72.9284 71.8943 74.4296C70.3944 75.9303 69.4666 78.0035 69.4666 80.2935C69.4666 82.0613 70.0195 83.7001 70.9619 85.0459C71.9741 86.4915 73.4354 87.5993 75.1431 88.1665L75.1432 111.774C72.4778 112.573 69.6663 113.022 66.7677 113.067H57.4995L57.5009 88.1662C59.1401 87.6216 60.5522 86.5788 61.558 85.2174L61.6816 85.0455C62.6238 83.6998 63.1766 82.0612 63.1766 80.2935C63.1766 78.0035 62.2488 75.9303 60.7489 74.4296C59.2486 72.9284 57.1759 72 54.8865 72C52.5972 72 50.5245 72.9284 49.0242 74.4296C47.5243 75.9303 46.5965 78.0035 46.5965 80.2935C46.5965 82.0614 47.1494 83.7001 48.0918 85.0459C49.1041 86.4915 50.5654 87.5994 52.2732 88.1665L52.2729 113.067H39.8302V52.8H66.257ZM139.935 73.7905L156.63 113.067L110.905 113.067C116.937 109.522 121.806 104.81 125.07 99.1321L125.179 98.9405L125.396 98.9708C125.822 99.0277 126.256 99.057 126.697 99.057C129.381 99.057 131.811 97.9685 133.57 96.2086C135.328 94.449 136.416 92.0183 136.416 89.3334C136.416 86.4656 135.175 83.888 133.201 82.1081C133.135 82.0481 133.067 81.989 132.999 81.931C133.046 81.8516 133.092 81.7727 133.14 81.694L133.329 81.3834C135.071 78.5639 137.296 76.0194 139.935 73.7905ZM152.466 149.43L159.924 132.029H162.41L169.867 149.43H167.095L166.043 146.944H156.29L155.287 149.43H152.466ZM164.991 144.459L161.167 135.28L157.342 144.459H164.991ZM147.735 132.029V149.43H150.556V132.029H147.735ZM126.75 149.43V132.029H129.141L141.666 145.271V132.029H144.486V149.43H142.096L129.571 136.188V149.43H126.75ZM120.681 132.029V149.43H123.502V132.029H120.681ZM101.357 149.43L93.8989 132.029H96.9107L102.647 146.036L104.942 140.108L101.596 132.029H104.607L110.105 146.036L115.794 132.029H118.758L111.3 149.43H108.814L106.376 143.502L103.843 149.43H101.357ZM77.3569 132.029V149.43H80.1774V141.973H86.5834L89.6908 149.43H92.607L89.404 141.686C91.364 140.969 92.607 139.104 92.607 137.001C92.607 134.276 90.5991 132.029 87.5874 132.029H77.3569ZM87.3005 139.487H80.1774V134.515H87.3005C88.7825 134.515 89.7864 135.519 89.7864 137.001C89.7864 138.483 88.7825 139.487 87.3005 139.487ZM58.0443 149.43L65.5021 132.029H67.988L75.4457 149.43H72.673L71.6212 146.944H61.8688L60.8649 149.43H58.0443ZM62.9205 144.459H70.5695L66.745 135.28L62.9205 144.459ZM41.4556 132.029V149.43H49.1046C53.933 149.43 57.9487 145.558 57.9487 140.73C57.9487 135.614 54.172 132.029 49.1046 132.029H41.4556ZM49.1046 146.944H44.2762V134.515H49.1046C52.5466 134.515 55.1281 137.24 55.1281 140.73C55.1281 144.219 52.5466 146.944 49.1046 146.944ZM189.546 180.364V172.141L182.088 162.962H185.482L190.98 169.894L196.43 162.962H199.824L192.366 172.141V180.364H189.546ZM171.907 165.448V180.364H174.68V165.448H181.086V162.962H165.501V165.448H171.907ZM160.341 180.364V162.962H163.161V180.364H160.341ZM139.355 162.962V180.364H142.176V167.121L154.701 180.364H157.091V162.962H154.271V176.205L141.746 162.962H139.355ZM128.556 180.603C124.349 180.603 121.05 177.591 121.05 173.002V162.962H123.871V173.241C123.871 175.966 125.926 178.069 128.699 178.069C131.424 178.069 133.48 175.966 133.48 173.241V162.962H136.3V173.002C136.3 177.591 132.763 180.603 128.556 180.603ZM100.303 162.962V180.364H103.076V167.552L109.147 173.384L115.218 167.552V180.364H117.991V162.962H116.127L109.147 169.894L102.215 162.962H100.303ZM79.3643 180.364V162.962H81.2766L88.2085 169.894L95.1881 162.962H97.0526V180.364H94.2798V167.552L88.2085 173.384L82.1371 167.552V180.364H79.3643ZM58.4636 171.663C58.4636 176.969 62.1924 180.603 67.4989 180.603C72.3751 180.603 76.4864 176.539 76.4864 171.663C76.4864 166.356 72.8054 162.723 67.4989 162.723C62.5749 162.723 58.4636 166.739 58.4636 171.663ZM73.6181 171.663C73.6181 175.201 71.0365 178.069 67.4989 178.069C63.9613 178.069 61.3319 175.201 61.3319 171.663C61.3319 168.125 63.9613 165.257 67.4989 165.257C71.0365 165.257 73.6181 168.125 73.6181 171.663ZM50.1085 180.603C44.802 180.603 41.0732 176.969 41.0732 171.663C41.0732 166.739 45.1845 162.723 50.1085 162.723C52.7378 162.723 54.8891 163.727 56.4667 165.257L54.5545 167.169C53.4549 165.974 51.9251 165.257 50.1085 165.257C46.5709 165.257 43.9415 168.125 43.9415 171.663C43.9415 175.201 46.5709 178.069 50.1085 178.069C51.8773 178.069 53.4549 177.304 54.5545 176.109L56.4189 177.973C54.7935 179.599 52.5466 180.603 50.1085 180.603ZM75.5505 202.596C75.5505 207.903 79.2794 211.536 84.5858 211.536C89.4621 211.536 93.5734 207.473 93.5734 202.596C93.5734 197.29 89.8923 193.657 84.5858 193.657C79.6618 193.657 75.5505 197.672 75.5505 202.596ZM90.705 202.596C90.705 206.134 88.1235 209.002 84.5858 209.002C81.0482 209.002 78.4188 206.134 78.4188 202.596C78.4188 199.059 81.0482 196.19 84.5858 196.19C88.1235 196.19 90.705 199.059 90.705 202.596ZM58.0443 211.297L65.5021 193.896H67.988L75.4457 211.297H72.673L71.6212 208.811H61.8688L60.8649 211.297H58.0443ZM62.9205 206.325H70.5695L66.745 197.146L62.9205 206.325ZM41.4556 193.896V211.297H49.1046C53.933 211.297 57.9487 207.425 57.9487 202.596C57.9487 197.481 54.172 193.896 49.1046 193.896H41.4556ZM49.1046 208.811H44.2762V196.382H49.1046C52.5466 196.382 55.1281 199.106 55.1281 202.596C55.1281 206.086 52.5466 208.811 49.1046 208.811Z" fill="#FF0083"/>
</svg>
