<?xml version="1.0" encoding="UTF-8"?>
<svg width="1100px" height="320px" viewBox="0 0 1100 320" version="1.1" xmlns="http://www.w3.org/2000/svg" xmlns:xlink="http://www.w3.org/1999/xlink">
    <title>black</title>
    <g id="LOGO" stroke="none" stroke-width="1" fill="none" fill-rule="evenodd">
        <g id="画板备份-3" transform="translate(-268, -863)" fill="#512DBC" fill-rule="nonzero">
            <path d="M645.269601,911.484848 C655.705341,911.484848 664.16518,920.167811 664.16518,930.878788 C664.16518,941.364922 656.056788,949.907291 645.924125,950.26131 L622.838502,985.8034 L622.585478,986.186334 C617.300677,994.049548 608.581666,998.757576 599.255394,998.757576 L571.273334,998.756741 C573.894585,1004.91422 575.910821,1011.40509 577.244919,1018.15022 L636.743747,1018.15152 L637.048761,1018.14647 C640.091715,1018.04585 642.909065,1016.44412 644.604783,1013.83346 L666.834205,979.609843 C665.139304,976.702323 664.16518,973.301255 664.16518,969.666667 C664.16518,958.95569 672.625019,950.272727 683.060759,950.272727 C693.496499,950.272727 701.956338,958.95569 701.956338,969.666667 C701.956338,980.25869 693.683361,988.867494 683.40771,989.057402 L660.326855,1024.59128 L660.073831,1024.97421 C654.78903,1032.83743 646.070019,1037.54545 636.743747,1037.54545 L579.135076,1037.54545 C579.135076,1044.18767 578.484406,1050.67391 577.244919,1056.94069 L636.743747,1056.93939 C646.070019,1056.93939 654.78903,1061.64742 660.073831,1069.51064 L660.326855,1069.89357 L683.40771,1105.42745 C693.683361,1105.61735 701.956338,1114.22616 701.956338,1124.81818 C701.956338,1135.52916 693.496499,1144.21212 683.060759,1144.21212 C672.625019,1144.21212 664.16518,1135.52916 664.16518,1124.81818 C664.16518,1121.18359 665.139304,1117.78253 666.834205,1114.87501 L644.604783,1080.65139 C642.909065,1078.04073 640.091715,1076.43899 637.048761,1076.33837 L636.743747,1076.33333 L571.273334,1076.33417 C568.325726,1083.25828 564.613071,1089.76079 560.245035,1095.72916 L598.952589,1095.72727 C608.278861,1095.72727 616.997872,1100.4353 622.282673,1108.29851 L622.535697,1108.68145 L645.616552,1144.21532 C655.892204,1144.40523 664.16518,1153.01404 664.16518,1163.60606 C664.16518,1174.31704 655.705341,1183 645.269601,1183 C634.833861,1183 626.374023,1174.31704 626.374023,1163.60606 C626.374023,1159.97129 627.348245,1156.57006 629.043305,1153.66244 L606.813625,1119.43927 C605.117908,1116.82861 602.300558,1115.22687 599.257604,1115.12625 L598.952589,1115.12121 L541.350641,1115.12313 C525.5592,1127.29963 505.929176,1134.51515 484.657182,1134.51515 C463.385292,1134.51515 443.755355,1127.2997 427.963954,1115.12331 L371.003747,1115.12121 L370.698733,1115.12625 C367.65578,1115.22687 364.838429,1116.82861 363.142711,1119.43927 L340.913615,1153.66344 C342.608315,1156.57084 343.582315,1159.9717 343.582315,1163.60606 C343.582315,1174.31704 335.122476,1183 324.686736,1183 C314.250996,1183 305.791158,1174.31704 305.791158,1163.60606 C305.791158,1153.01405 314.064116,1144.40525 324.339753,1144.21533 L347.420639,1108.68145 L347.673663,1108.29851 C352.958465,1100.4353 361.677475,1095.72727 371.003747,1095.72727 L409.069328,1095.72916 C404.701292,1089.76079 400.988637,1083.25828 398.041029,1076.33417 L333.21259,1076.33333 L332.907576,1076.33837 C329.864622,1076.43899 327.047272,1078.04073 325.351554,1080.65139 L303.122133,1114.87501 C304.817033,1117.78253 305.791158,1121.18359 305.791158,1124.81818 C305.791158,1135.52916 297.331319,1144.21212 286.895579,1144.21212 C276.459839,1144.21212 268,1135.52916 268,1124.81818 C268,1114.22617 276.272959,1105.61737 286.548595,1105.42745 L309.629482,1069.89357 L309.882506,1069.51064 C315.167307,1061.64742 323.886318,1056.93939 333.21259,1056.93939 L392.069444,1056.94069 C390.829957,1050.67391 390.179288,1044.18767 390.179288,1037.54545 L333.21259,1037.54545 C323.886318,1037.54545 315.167307,1032.83743 309.882506,1024.97421 L309.629482,1024.59128 L286.548595,989.057402 C276.272959,988.867476 268,980.258679 268,969.666667 C268,958.95569 276.459839,950.272727 286.895579,950.272727 C297.331319,950.272727 305.791158,958.95569 305.791158,969.666667 C305.791158,973.301255 304.817033,976.702323 303.122133,979.609843 L325.351554,1013.83346 C327.047272,1016.44412 329.864622,1018.04585 332.907576,1018.14647 L333.21259,1018.15152 L392.069444,1018.15022 C393.403542,1011.40509 395.419779,1004.91422 398.041029,998.756741 L370.700943,998.757576 C361.374671,998.757576 352.65566,994.049549 347.370859,986.186334 L347.117835,985.8034 L324.031261,950.261277 C313.899042,949.906756 305.791158,941.364594 305.791158,930.878788 C305.791158,920.167811 314.250996,911.484848 324.686736,911.484848 C335.122476,911.484848 343.582315,920.167811 343.582315,930.878788 C343.582315,934.615146 342.552876,938.104724 340.769227,941.065032 L362.839907,975.045578 C364.535624,977.65624 367.352975,979.257975 370.395929,979.358596 L370.700943,979.363636 L409.068771,979.36251 C426.305489,955.810245 453.74795,940.575758 484.657182,940.575758 C515.566414,940.575758 543.008875,955.810245 560.245592,979.36251 L599.255394,979.363636 L599.560408,979.358596 C602.603362,979.257975 605.420712,977.65624 607.11643,975.045578 L629.187713,941.066031 C627.403694,938.105509 626.374023,934.615566 626.374023,930.878788 C626.374023,920.167811 634.833861,911.484848 645.269601,911.484848 Z M484.657182,959.969697 C442.914222,959.969697 409.074867,994.701547 409.074867,1037.54545 C409.074867,1080.38936 442.914222,1115.12121 484.657182,1115.12121 C526.400142,1115.12121 560.239497,1080.38936 560.239497,1037.54545 C560.239497,994.701547 526.400142,959.969697 484.657182,959.969697 Z M484.657182,979.363636 C515.964402,979.363636 541.343918,1005.41252 541.343918,1037.54545 C541.343918,1069.67839 515.964402,1095.72727 484.657182,1095.72727 C453.349962,1095.72727 427.970445,1069.67839 427.970445,1037.54545 C427.970445,1005.41252 453.349962,979.363636 484.657182,979.363636 Z M550.791707,863 L551.416653,863.005196 C571.999889,863.347724 588.582865,880.580144 588.582865,901.787879 C588.582865,923.209833 571.663187,940.575758 550.791707,940.575758 C529.920227,940.575758 513.00055,923.209833 513.00055,901.787879 C513.00055,891.076902 517.23047,881.379932 524.069324,874.360707 L550.791707,901.787879 L550.791707,863 Z M418.522656,863 L418.522656,901.787879 L439.487917,869.511188 C449.63256,876.466616 456.313814,888.326423 456.313814,901.787879 C456.313814,923.209833 439.394136,940.575758 418.522656,940.575758 C397.651176,940.575758 380.731498,923.209833 380.731498,901.787879 C380.731498,880.365925 397.651176,863 418.522656,863 Z M912.355659,1124.35215 C928.034855,1124.35215 941.301868,1120.64772 952.156696,1113.23887 C963.011524,1105.83002 971.454168,1095.57824 977.484629,1082.48352 L953.965834,1068.26887 C950.692156,1077.05611 945.652414,1084.24959 938.846609,1089.8493 C932.040804,1095.44901 923.210487,1098.24887 912.355659,1098.24887 C898.399451,1098.24887 887.458473,1093.51065 879.532725,1084.03421 C871.606978,1074.55778 867.644104,1061.46306 867.644104,1044.75007 L867.644104,1017.35455 C867.644104,1000.64156 871.606978,987.546851 879.532725,978.070413 C887.458473,968.593976 898.399451,963.855757 912.355659,963.855757 C922.865889,963.855757 931.351608,966.397165 937.812816,971.479982 C944.274023,976.562798 949.055316,983.411678 952.156696,992.026621 L976.709284,978.58731 C970.678824,965.147999 962.365403,954.982366 951.769023,948.090411 C941.172643,941.198457 928.034855,937.752479 912.355659,937.752479 C900.639336,937.752479 890.086031,939.776991 880.695743,943.826014 C871.305455,947.875038 863.336632,953.862423 856.789276,961.788171 C850.241919,969.713918 845.245252,979.448804 841.799275,990.992828 C838.353297,1002.53685 836.630309,1015.89001 836.630309,1031.05231 C836.630309,1061.37691 843.349964,1084.50804 856.789276,1100.44568 C870.228587,1116.38332 888.750715,1124.35215 912.355659,1124.35215 Z M1034.6017,1121.25077 L1034.6017,1035.44593 C1034.6017,1028.38168 1037.57386,1023.04042 1043.51817,1019.42214 C1049.46248,1015.80386 1058.03435,1013.99473 1069.23377,1013.99473 L1080.34705,1013.99473 L1080.34705,986.857655 L1072.85205,986.857655 C1062.16952,986.857655 1053.81302,989.442138 1047.78256,994.611104 C1041.7521,999.78007 1037.78923,1005.81053 1035.89394,1012.70248 L1034.6017,1012.70248 L1034.6017,986.857655 L1006.43084,986.857655 L1006.43084,1121.25077 L1034.6017,1121.25077 Z M1139.01481,1124.35215 C1148.83585,1124.35215 1157.19234,1122.19841 1164.0843,1117.89094 C1170.97625,1113.58347 1175.71447,1107.20841 1178.29895,1098.76577 L1179.59119,1098.76577 C1180.45269,1105.31312 1182.86487,1110.69746 1186.82775,1114.91878 C1190.79062,1119.14011 1196.47648,1121.25077 1203.88533,1121.25077 L1219.65068,1121.25077 L1219.65068,1098.24887 L1205.43602,1098.24887 L1205.43602,1030.79387 C1205.43602,1015.63157 1200.78395,1004.00139 1191.47982,995.903345 C1182.17568,987.805299 1168.82252,983.756276 1151.42033,983.756276 C1138.32562,983.756276 1127.72924,986.211534 1119.63119,991.122052 C1111.53314,996.03257 1105.24424,1002.2784 1100.76446,1009.85955 L1117.5636,1025.108 C1121.00958,1019.76674 1125.2309,1015.37312 1130.22757,1011.92714 C1135.22424,1008.48116 1141.68544,1006.75817 1149.61119,1006.75817 C1159.08763,1006.75817 1166.06573,1008.99806 1170.5455,1013.47783 C1175.02527,1017.9576 1177.26516,1024.33266 1177.26516,1032.603 L1177.26516,1043.97473 L1152.97102,1043.97473 C1134.19044,1043.97473 1119.93271,1047.33456 1110.19783,1054.05421 C1100.46294,1060.77387 1095.5955,1070.85335 1095.5955,1084.29266 C1095.5955,1096.52588 1099.343,1106.26077 1106.838,1113.49732 C1114.333,1120.73387 1125.0586,1124.35215 1139.01481,1124.35215 Z M1147.02671,1102.90094 C1139.96246,1102.90094 1134.40582,1101.39332 1130.35679,1098.37809 C1126.30777,1095.36286 1124.28326,1090.84002 1124.28326,1084.80956 L1124.28326,1080.15749 C1124.28326,1068.09657 1134.01815,1062.06611 1153.48792,1062.06611 L1177.26516,1062.06611 L1177.26516,1081.44973 C1177.26516,1087.99709 1174.42223,1093.20913 1168.73637,1097.08585 C1163.0505,1100.96258 1155.81395,1102.90094 1147.02671,1102.90094 Z M1314.5012,1124.35215 C1331.55879,1124.35215 1344.73965,1118.19246 1354.04379,1105.87309 C1363.34793,1093.55373 1368,1076.28076 1368,1054.05421 C1368,1031.82766 1363.34793,1014.5547 1354.04379,1002.23533 C1344.73965,989.91596 1331.55879,983.756276 1314.5012,983.756276 C1305.54166,983.756276 1297.74514,985.953086 1291.11163,990.346707 C1284.47813,994.740328 1279.69683,1000.98616 1276.76775,1009.08421 L1275.47551,1009.08421 L1275.47551,929.999031 L1247.30465,929.999031 L1247.30465,1121.25077 L1275.47551,1121.25077 L1275.47551,1099.02421 L1276.76775,1099.02421 C1279.69683,1106.94996 1284.47813,1113.15272 1291.11163,1117.63249 C1297.74514,1122.11226 1305.54166,1124.35215 1314.5012,1124.35215 Z M1305.97241,1100.05801 C1297.35747,1100.05801 1290.12091,1097.94735 1284.26275,1093.72602 C1278.40459,1089.5047 1275.47551,1083.94806 1275.47551,1077.05611 L1275.47551,1031.05231 C1275.47551,1024.16036 1278.40459,1018.60372 1284.26275,1014.3824 C1290.12091,1010.16108 1297.35747,1008.05042 1305.97241,1008.05042 C1315.79344,1008.05042 1323.63304,1011.19487 1329.4912,1017.48378 C1335.34937,1023.77269 1338.27845,1032.08611 1338.27845,1042.42404 L1338.27845,1065.68438 C1338.27845,1076.02232 1335.34937,1084.33574 1329.4912,1090.62464 C1323.63304,1096.91355 1315.79344,1100.05801 1305.97241,1100.05801 Z" id="black"></path>
        </g>
    </g>
</svg>