<?xml version="1.0" encoding="UTF-8"?>
<svg width="500px" height="500px" viewBox="0 0 500 500" version="1.1" xmlns="http://www.w3.org/2000/svg" xmlns:xlink="http://www.w3.org/1999/xlink">
    <title>head</title>
    <g id="LOGO" stroke="none" stroke-width="1" fill="none" fill-rule="evenodd">
        <g id="画板备份-3" transform="translate(-1829, -482)">
            <g id="head" transform="translate(1829, 482)">
                <circle id="椭圆形备份" fill="#512DBC" fill-rule="nonzero" cx="250" cy="250" r="250"></circle>
                <g id="Crab-2备份-2" transform="translate(70.3125, 119.1406)" fill="#FFFFFF">
                    <path d="M314.128648,39.358428 C322.817832,39.358428 329.861807,46.4069754 329.861807,55.1017992 C329.861807,63.6138872 323.110801,70.54817 314.674269,70.8358806 L295.451684,99.6878184 L295.241006,99.9986721 C290.840685,106.381775 283.580914,110.203598 275.815514,110.203598 L275.815514,110.203598 L252.516729,110.203184 C254.69932,115.201766 256.378126,120.471008 257.488925,125.946645 L307.029706,125.94697 L307.283672,125.942878 C309.817348,125.861197 312.163178,124.56096 313.575096,122.44171 L313.575096,122.44171 L332.084151,94.6601153 C330.672905,92.2998794 329.861807,89.5389935 329.861807,86.5885417 C329.861807,77.8937178 336.905782,70.8451705 345.594966,70.8451705 C354.28415,70.8451705 361.328125,77.8937178 361.328125,86.5885417 C361.328125,95.186739 354.439841,102.175047 345.884041,102.329309 L326.665875,131.174561 L326.455198,131.485414 C322.054877,137.868517 314.795105,141.690341 307.029706,141.690341 L307.029706,141.690341 L259.062592,141.690341 L259.062592,141.690341 C259.062592,147.082301 258.520816,152.34764 257.488765,157.434824 L307.029706,157.433712 C314.795105,157.433712 322.054877,161.255536 326.455198,167.638639 L326.665875,167.949492 L345.884041,196.794744 C354.439841,196.949006 361.328125,203.937314 361.328125,212.535511 C361.328125,221.230335 354.28415,228.278883 345.594966,228.278883 C336.905782,228.278883 329.861807,221.230335 329.861807,212.535511 C329.861807,209.58506 330.672905,206.824174 332.084151,204.463938 L313.575096,176.682343 C312.163178,174.563093 309.817348,173.262856 307.283672,173.181175 L307.029706,173.177083 L252.516386,173.178283 C250.062137,178.798852 246.970923,184.077205 243.334049,188.921979 L275.563388,188.920455 C283.328787,188.920455 290.588559,192.742278 294.98888,199.125381 L295.199557,199.436235 L314.417723,228.281487 C322.973523,228.435749 329.861807,235.424056 329.861807,244.022254 C329.861807,252.717078 322.817832,259.765625 314.128648,259.765625 C305.439464,259.765625 298.395489,252.717078 298.395489,244.022254 C298.395489,241.071802 299.206587,238.310916 300.617833,235.95068 L282.108778,208.169086 C280.69686,206.049835 278.35103,204.749598 275.817354,204.667917 L275.563388,204.663826 L227.601718,204.665498 C214.453206,214.549915 198.108578,220.407197 180.396797,220.407197 C162.685015,220.407197 146.340388,214.549915 133.191875,204.665498 L85.7647364,204.663826 L85.5107701,204.667917 C82.9770943,204.749598 80.6312638,206.049835 79.2193465,208.169086 L79.2193465,208.169086 L60.7107627,235.951468 C62.1217186,238.31153 62.9326359,241.07213 62.9326359,244.022254 C62.9326359,252.717078 55.8886607,259.765625 47.199477,259.765625 C38.5102932,259.765625 31.466318,252.717078 31.466318,244.022254 C31.466318,235.42381 38.3549967,228.435348 46.9111374,228.281473 L66.1285669,199.436235 L66.3392441,199.125381 C70.7395656,192.742278 77.9993368,188.920455 85.7647364,188.920455 L85.7647364,188.920455 L117.459545,188.921979 C113.822671,184.077205 110.731457,178.798852 108.277207,173.178283 L54.2984185,173.177083 L54.0444524,173.181175 C51.5107762,173.262856 49.1649461,174.563093 47.7530287,176.682343 L47.7530287,176.682343 L29.2444448,204.464726 C30.6554007,206.824788 31.466318,209.585388 31.466318,212.535511 C31.466318,221.230335 24.4223428,228.278883 15.733159,228.278883 C7.04397521,228.278883 0,221.230335 0,212.535511 C0,203.937068 6.88867873,196.948606 15.4448194,196.794731 L34.6622491,167.949492 L34.8729265,167.638639 C39.2732477,161.255536 46.5330191,157.433712 54.2984185,157.433712 L54.2984185,157.433712 L103.304828,157.434824 C102.272778,152.34764 101.731002,147.082301 101.731002,141.690341 L54.2984185,141.690341 C46.5330191,141.690341 39.2732477,137.868517 34.8729265,131.485414 L34.6622491,131.174561 L15.4448194,102.329322 C6.88867873,102.175447 0,95.1869854 0,86.5885417 C0,77.8937178 7.04397521,70.8451705 15.733159,70.8451705 C24.4223428,70.8451705 31.466318,77.8937178 31.466318,86.5885417 C31.466318,89.5386652 30.6554007,92.2992654 29.2444448,94.6593274 L47.7530287,122.44171 C49.1649461,124.56096 51.5107762,125.861197 54.0444524,125.942878 L54.2984185,125.94697 L103.304669,125.946645 C104.415526,120.470721 106.094449,115.201214 108.277207,110.202399 L85.5126101,110.203598 C77.7472106,110.203598 70.4874394,106.381775 66.0871179,99.9986721 L65.8764406,99.6878184 L46.6538692,70.8358811 C38.2173308,70.5481777 31.466318,63.613892 31.466318,55.1017992 C31.466318,46.4069754 38.5102932,39.358428 47.199477,39.358428 C55.8886607,39.358428 62.9326359,46.4069754 62.9326359,55.1017992 C62.9326359,58.1349388 62.0754381,60.9677392 60.5902293,63.3708649 L78.9672203,90.9549672 C80.3791376,93.0742179 82.7249681,94.374455 85.2586439,94.4561356 L85.5126101,94.4602273 L117.459545,94.4587025 C131.811501,75.3400844 154.660899,62.9734848 180.396797,62.9734848 C206.132695,62.9734848 228.982092,75.3400844 243.334049,94.4587025 L275.815514,94.4602273 L276.06948,94.4561356 C278.603156,94.374455 280.948987,93.0742179 282.360904,90.9549672 L282.360904,90.9549672 L300.737896,63.3708649 C299.252687,60.9677392 298.395489,58.1349388 298.395489,55.1017992 C298.395489,46.4069754 305.439464,39.358428 314.128648,39.358428 Z M180.396797,78.7168561 C145.640062,78.7168561 117.464161,106.911046 117.464161,141.690341 C117.464161,176.469636 145.640062,204.663826 180.396797,204.663826 C215.153532,204.663826 243.329433,176.469636 243.329433,141.690341 C243.329433,106.911046 215.153532,78.7168561 180.396797,78.7168561 Z M180.396797,94.4602273 C206.464348,94.4602273 227.596274,115.605869 227.596274,141.690341 C227.596274,167.774812 206.464348,188.920455 180.396797,188.920455 C154.329245,188.920455 133.19732,167.774812 133.19732,141.690341 C133.19732,115.605869 154.329245,94.4602273 180.396797,94.4602273 Z M235.462853,0 L235.983206,0.00421832389 C253.121571,0.28227115 266.929171,14.2709912 266.929171,31.4867424 C266.929171,48.8763901 252.841221,62.9734848 235.462853,62.9734848 C218.084486,62.9734848 203.996535,48.8763901 203.996535,31.4867424 C203.996535,22.7919186 207.518523,14.920233 213.212807,9.22225338 L213.212807,9.22225338 L235.462853,31.4867424 L235.462853,0 Z M125.33074,0 L125.33074,31.4867424 L142.787193,5.28557145 C151.233999,10.9317621 156.797058,20.5591693 156.797058,31.4867424 C156.797058,48.8763901 142.709108,62.9734848 125.33074,62.9734848 C107.952373,62.9734848 93.8644223,48.8763901 93.8644223,31.4867424 C93.8644223,14.0970948 107.952373,0 125.33074,0 Z" id="形状结合"></path>
                </g>
            </g>
        </g>
    </g>
</svg>