<?xml version="1.0" encoding="UTF-8"?>
<svg width="1100px" height="320px" viewBox="0 0 1100 320" version="1.1" xmlns="http://www.w3.org/2000/svg" xmlns:xlink="http://www.w3.org/1999/xlink">
    <title>white</title>
    <g id="LOGO" stroke="none" stroke-width="1" fill="none" fill-rule="evenodd">
        <g id="画板备份-3" transform="translate(-268, -340)" fill="#FFFFFF" fill-rule="nonzero">
            <path d="M645.269601,388.484848 C655.705341,388.484848 664.16518,397.167811 664.16518,407.878788 C664.16518,418.364922 656.056788,426.907291 645.924125,427.26131 L622.838502,462.8034 L622.585478,463.186334 C617.300677,471.049548 608.581666,475.757576 599.255394,475.757576 L571.273334,475.756741 C573.894585,481.914216 575.910821,488.405095 577.244919,495.150219 L636.743747,495.151515 L637.048761,495.146475 C640.091715,495.045854 642.909065,493.444118 644.604783,490.833456 L666.834205,456.609843 C665.139304,453.702323 664.16518,450.301255 664.16518,446.666667 C664.16518,435.95569 672.625019,427.272727 683.060759,427.272727 C693.496499,427.272727 701.956338,435.95569 701.956338,446.666667 C701.956338,457.25869 693.683361,465.867494 683.40771,466.057402 L660.326855,501.591279 L660.073831,501.974213 C654.78903,509.837427 646.070019,514.545455 636.743747,514.545455 L579.135076,514.545455 C579.135076,521.187674 578.484406,527.673914 577.244919,533.94069 L636.743747,533.939394 C646.070019,533.939394 654.78903,538.647421 660.073831,546.510636 L660.326855,546.89357 L683.40771,582.427446 C693.683361,582.617354 701.956338,591.226158 701.956338,601.818182 C701.956338,612.529159 693.496499,621.212121 683.060759,621.212121 C672.625019,621.212121 664.16518,612.529159 664.16518,601.818182 C664.16518,598.183594 665.139304,594.782525 666.834205,591.875006 L644.604783,557.651392 C642.909065,555.04073 640.091715,553.438994 637.048761,553.338374 L636.743747,553.333333 L571.273334,553.334168 C568.325726,560.258276 564.613071,566.760793 560.245035,572.729159 L598.952589,572.727273 C608.278861,572.727273 616.997872,577.4353 622.282673,585.298514 L622.535697,585.681449 L645.616552,621.215325 C655.892204,621.405233 664.16518,630.014037 664.16518,640.606061 C664.16518,651.317038 655.705341,660 645.269601,660 C634.833861,660 626.374023,651.317038 626.374023,640.606061 C626.374023,636.971289 627.348245,633.57006 629.043305,630.662444 L606.813625,596.439271 C605.117908,593.828609 602.300558,592.226873 599.257604,592.126253 L598.952589,592.121212 L541.350641,592.12313 C525.5592,604.299628 505.929176,611.515152 484.657182,611.515152 C463.385292,611.515152 443.755355,604.299699 427.963954,592.123309 L371.003747,592.121212 L370.698733,592.126253 C367.65578,592.226873 364.838429,593.828609 363.142711,596.439271 L340.913615,630.663441 C342.608315,633.570838 343.582315,636.971704 343.582315,640.606061 C343.582315,651.317038 335.122476,660 324.686736,660 C314.250996,660 305.791158,651.317038 305.791158,640.606061 C305.791158,630.014049 314.064116,621.405252 324.339753,621.215326 L347.420639,585.681449 L347.673663,585.298514 C352.958465,577.4353 361.677475,572.727273 371.003747,572.727273 L409.069328,572.729159 C404.701292,566.760793 400.988637,560.258276 398.041029,553.334168 L333.21259,553.333333 L332.907576,553.338374 C329.864622,553.438994 327.047272,555.04073 325.351554,557.651392 L303.122133,591.875006 C304.817033,594.782525 305.791158,598.183594 305.791158,601.818182 C305.791158,612.529159 297.331319,621.212121 286.895579,621.212121 C276.459839,621.212121 268,612.529159 268,601.818182 C268,591.22617 276.272959,582.617373 286.548595,582.427447 L309.629482,546.89357 L309.882506,546.510636 C315.167307,538.647421 323.886318,533.939394 333.21259,533.939394 L392.069444,533.94069 C390.829957,527.673914 390.179288,521.187674 390.179288,514.545455 L333.21259,514.545455 C323.886318,514.545455 315.167307,509.837427 309.882506,501.974213 L309.629482,501.591279 L286.548595,466.057402 C276.272959,465.867476 268,457.258679 268,446.666667 C268,435.95569 276.459839,427.272727 286.895579,427.272727 C297.331319,427.272727 305.791158,435.95569 305.791158,446.666667 C305.791158,450.301255 304.817033,453.702323 303.122133,456.609843 L325.351554,490.833456 C327.047272,493.444118 329.864622,495.045854 332.907576,495.146475 L333.21259,495.151515 L392.069444,495.150219 C393.403542,488.405095 395.419779,481.914216 398.041029,475.756741 L370.700943,475.757576 C361.374671,475.757576 352.65566,471.049549 347.370859,463.186334 L347.117835,462.8034 L324.031261,427.261277 C313.899042,426.906756 305.791158,418.364594 305.791158,407.878788 C305.791158,397.167811 314.250996,388.484848 324.686736,388.484848 C335.122476,388.484848 343.582315,397.167811 343.582315,407.878788 C343.582315,411.615146 342.552876,415.104724 340.769227,418.065032 L362.839907,452.045578 C364.535624,454.65624 367.352975,456.257975 370.395929,456.358596 L370.700943,456.363636 L409.068771,456.36251 C426.305489,432.810245 453.74795,417.575758 484.657182,417.575758 C515.566414,417.575758 543.008875,432.810245 560.245592,456.36251 L599.255394,456.363636 L599.560408,456.358596 C602.603362,456.257975 605.420712,454.65624 607.11643,452.045578 L629.187713,418.066031 C627.403694,415.105509 626.374023,411.615566 626.374023,407.878788 C626.374023,397.167811 634.833861,388.484848 645.269601,388.484848 Z M484.657182,436.969697 C442.914222,436.969697 409.074867,471.701547 409.074867,514.545455 C409.074867,557.389362 442.914222,592.121212 484.657182,592.121212 C526.400142,592.121212 560.239497,557.389362 560.239497,514.545455 C560.239497,471.701547 526.400142,436.969697 484.657182,436.969697 Z M484.657182,456.363636 C515.964402,456.363636 541.343918,482.412524 541.343918,514.545455 C541.343918,546.678385 515.964402,572.727273 484.657182,572.727273 C453.349962,572.727273 427.970445,546.678385 427.970445,514.545455 C427.970445,482.412524 453.349962,456.363636 484.657182,456.363636 Z M550.791707,340 L551.416653,340.005196 C571.999889,340.347724 588.582865,357.580144 588.582865,378.787879 C588.582865,400.209833 571.663187,417.575758 550.791707,417.575758 C529.920227,417.575758 513.00055,400.209833 513.00055,378.787879 C513.00055,368.076902 517.23047,358.379932 524.069324,351.360707 L550.791707,378.787879 L550.791707,340 Z M418.522656,340 L418.522656,378.787879 L439.487917,346.511188 C449.63256,353.466616 456.313814,365.326423 456.313814,378.787879 C456.313814,400.209833 439.394136,417.575758 418.522656,417.575758 C397.651176,417.575758 380.731498,400.209833 380.731498,378.787879 C380.731498,357.365925 397.651176,340 418.522656,340 Z M912.355659,601.352147 C928.034855,601.352147 941.301868,597.647722 952.156696,590.238871 C963.011524,582.83002 971.454168,572.578237 977.484629,559.483524 L953.965834,545.268868 C950.692156,554.05611 945.652414,561.249587 938.846609,566.8493 C932.040804,572.449013 923.210487,575.24887 912.355659,575.24887 C898.399451,575.24887 887.458473,570.510651 879.532725,561.034214 C871.606978,551.557776 867.644104,538.463063 867.644104,521.750073 L867.644104,494.354554 C867.644104,477.641564 871.606978,464.546851 879.532725,455.070413 C887.458473,445.593976 898.399451,440.855757 912.355659,440.855757 C922.865889,440.855757 931.351608,443.397165 937.812816,448.479982 C944.274023,453.562798 949.055316,460.411678 952.156696,469.026621 L976.709284,455.58731 C970.678824,442.147999 962.365403,431.982366 951.769023,425.090411 C941.172643,418.198457 928.034855,414.752479 912.355659,414.752479 C900.639336,414.752479 890.086031,416.776991 880.695743,420.826014 C871.305455,424.875038 863.336632,430.862423 856.789276,438.788171 C850.241919,446.713918 845.245252,456.448804 841.799275,467.992828 C838.353297,479.536852 836.630309,492.890013 836.630309,508.052313 C836.630309,538.376913 843.349964,561.508035 856.789276,577.44568 C870.228587,593.383325 888.750715,601.352147 912.355659,601.352147 Z M1034.6017,598.250768 L1034.6017,512.445934 C1034.6017,505.381681 1037.57386,500.040416 1043.51817,496.42214 C1049.46248,492.803864 1058.03435,490.994726 1069.23377,490.994726 L1080.34705,490.994726 L1080.34705,463.857655 L1072.85205,463.857655 C1062.16952,463.857655 1053.81302,466.442138 1047.78256,471.611104 C1041.7521,476.78007 1037.78923,482.81053 1035.89394,489.702485 L1034.6017,489.702485 L1034.6017,463.857655 L1006.43084,463.857655 L1006.43084,598.250768 L1034.6017,598.250768 Z M1139.01481,601.352147 C1148.83585,601.352147 1157.19234,599.198412 1164.0843,594.89094 C1170.97625,590.583468 1175.71447,584.20841 1178.29895,575.765766 L1179.59119,575.765766 C1180.45269,582.313123 1182.86487,587.697462 1186.82775,591.918785 C1190.79062,596.140107 1196.47648,598.250768 1203.88533,598.250768 L1219.65068,598.250768 L1219.65068,575.24887 L1205.43602,575.24887 L1205.43602,507.793865 C1205.43602,492.631565 1200.78395,481.001392 1191.47982,472.903345 C1182.17568,464.805299 1168.82252,460.756276 1151.42033,460.756276 C1138.32562,460.756276 1127.72924,463.211534 1119.63119,468.122052 C1111.53314,473.03257 1105.24424,479.278403 1100.76446,486.859553 L1117.5636,502.108003 C1121.00958,496.766738 1125.2309,492.373117 1130.22757,488.92714 C1135.22424,485.481162 1141.68544,483.758174 1149.61119,483.758174 C1159.08763,483.758174 1166.06573,485.998059 1170.5455,490.477829 C1175.02527,494.9576 1177.26516,501.332658 1177.26516,509.603003 L1177.26516,520.974728 L1152.97102,520.974728 C1134.19044,520.974728 1119.93271,524.334556 1110.19783,531.054211 C1100.46294,537.773867 1095.5955,547.853351 1095.5955,561.292662 C1095.5955,573.525881 1099.343,583.260767 1106.838,590.497319 C1114.333,597.733871 1125.0586,601.352147 1139.01481,601.352147 Z M1147.02671,579.900939 C1139.96246,579.900939 1134.40582,578.393324 1130.35679,575.378094 C1126.30777,572.362864 1124.28326,567.840019 1124.28326,561.809558 L1124.28326,557.157489 C1124.28326,545.096569 1134.01815,539.066109 1153.48792,539.066109 L1177.26516,539.066109 L1177.26516,558.449731 C1177.26516,564.997087 1174.42223,570.209128 1168.73637,574.085852 C1163.0505,577.962577 1155.81395,579.900939 1147.02671,579.900939 Z M1314.5012,601.352147 C1331.55879,601.352147 1344.73965,595.192463 1354.04379,582.873094 C1363.34793,570.553726 1368,553.280765 1368,531.054211 C1368,508.827658 1363.34793,491.554697 1354.04379,479.235329 C1344.73965,466.91596 1331.55879,460.756276 1314.5012,460.756276 C1305.54166,460.756276 1297.74514,462.953086 1291.11163,467.346707 C1284.47813,471.740328 1279.69683,477.986162 1276.76775,486.084208 L1275.47551,486.084208 L1275.47551,406.999031 L1247.30465,406.999031 L1247.30465,598.250768 L1275.47551,598.250768 L1275.47551,576.024215 L1276.76775,576.024215 C1279.69683,583.949962 1284.47813,590.152721 1291.11163,594.632492 C1297.74514,599.112262 1305.54166,601.352147 1314.5012,601.352147 Z M1305.97241,577.058008 C1297.35747,577.058008 1290.12091,574.947347 1284.26275,570.726025 C1278.40459,566.504702 1275.47551,560.948064 1275.47551,554.05611 L1275.47551,508.052313 C1275.47551,501.160359 1278.40459,495.603721 1284.26275,491.382398 C1290.12091,487.161076 1297.35747,485.050415 1305.97241,485.050415 C1315.79344,485.050415 1323.63304,488.194869 1329.4912,494.483778 C1335.34937,500.772686 1338.27845,509.086107 1338.27845,519.424038 L1338.27845,542.684385 C1338.27845,553.022316 1335.34937,561.335737 1329.4912,567.624645 C1323.63304,573.913553 1315.79344,577.058008 1305.97241,577.058008 Z" id="white"></path>
        </g>
    </g>
</svg>